<svg width="42" height="42" viewBox="0 0 42 42" fill="none" xmlns="http://www.w3.org/2000/svg">
<path d="M20.4632 41.5C15.0228 41.5 10.1772 39.4361 6.01713 35.3383C1.93032 31.313 -0.0915265 26.3008 -0.000995871 20.4381C0.0852237 15.0498 2.49937 9.74692 6.62498 5.88835C10.5394 2.22207 15.5315 0.316281 20.6831 0.512842C26.3132 0.3291 31.314 2.35026 35.5474 6.52931C39.5264 10.4605 41.5698 15.5583 41.4577 21.2799C41.2335 32.7189 32.0684 40.1241 23.5585 41.2821C22.5066 41.4274 21.4763 41.4957 20.4632 41.4957V41.5ZM19.9545 2.29043C15.5228 2.29043 11.255 4.01675 7.86654 7.19163C4.09444 10.7255 1.88721 15.5626 1.80531 20.4723C1.71909 25.8307 3.56419 30.4072 7.28887 34.0734C11.8025 38.5174 17.1955 40.3463 23.3171 39.5173C31.0855 38.4619 39.4531 31.7019 39.6557 21.2543C39.7592 15.9557 37.9486 11.4305 34.2756 7.80268C30.4044 3.97829 25.8476 2.12806 20.7176 2.30753H20.6831H20.6486C20.4201 2.29898 20.1873 2.29471 19.9588 2.29471L19.9545 2.29043Z" fill="#0067B1"/>
<path d="M26.8721 7.3243C27.3678 7.54223 28.9672 8.28574 29.8294 8.81133V14.2381H29.0017C28.8077 14.2381 28.2085 11.4393 24.6476 8.98225C23.35 8.08918 21.6989 7.41404 20.2116 7.41404C18.7243 7.41404 17.5733 7.82425 16.6163 8.64041C15.6635 9.45656 15.1807 10.4821 15.1807 11.717C15.1807 12.7041 15.6247 13.5929 16.5171 14.3877C17.4052 15.1825 19.1209 15.9345 21.6601 16.6396C25.6391 17.7591 28.3335 19.1393 29.7432 20.7802C31.14 22.421 31.8383 24.2499 31.8383 26.2582C31.8383 28.2666 31.3253 30.0356 30.3036 31.4286C29.2776 32.8216 28.0533 33.9198 26.635 34.7189C25.2081 35.5179 23.3802 35.9196 21.1557 35.9196C19.8926 35.9196 18.5864 35.7401 17.237 35.3769C15.8877 35.018 14.4737 34.5138 13.0511 33.7617C12.0725 33.2404 10.4774 32.3217 10.0938 32.0739V25.9591H11.0379C11.081 26.1258 11.1413 26.3437 11.2448 26.6086C12.1501 28.8135 13.3917 30.6937 15.0255 32.0354C16.6723 33.39 18.6942 34.3087 20.7591 34.3087C22.5094 34.3087 23.9234 33.7959 25.0011 32.7661C26.0746 31.7363 26.6134 30.574 26.6134 29.2665C26.6134 27.9589 26.1177 26.8607 25.1218 25.9634C24.1303 25.0703 22.3369 24.2114 19.7547 23.3867C17.2457 22.5791 15.379 21.81 14.1547 21.075C12.9304 20.34 11.9475 19.3316 11.2146 18.0497C10.4774 16.7635 10.1153 15.4602 10.1153 14.1398C10.1153 11.8367 11.0163 9.87532 12.8183 8.2601C14.6246 6.64916 17.0775 5.84155 20.1814 5.84155C21.8584 5.84155 24.1734 6.13639 26.8807 7.31576L26.8721 7.3243Z" fill="#0067B1"/>
</svg>
